<svg width="155" height="60" viewBox="0 0 155 60" fill="none" xmlns="http://www.w3.org/2000/svg">
<g clip-path="url(#clip0)">
<path d="M133.171 10H22.5347C22.168 10 21.8057 10 21.4399 10.002C21.1338 10.004 20.8301 10.0098 20.521 10.0147C19.8495 10.0226 19.1796 10.0817 18.5171 10.1914C17.8555 10.3035 17.2147 10.5149 16.6162 10.8184C16.0185 11.1245 15.4723 11.5222 14.9976 11.9971C14.5203 12.4706 14.1225 13.018 13.8194 13.6182C13.5154 14.2171 13.3046 14.8589 13.1944 15.5215C13.083 16.1832 13.0231 16.8525 13.0152 17.5235C13.0059 17.8301 13.0049 18.1377 13 18.4443V41.5586C13.0049 41.8691 13.0059 42.1699 13.0152 42.4805C13.0231 43.1514 13.083 43.8207 13.1944 44.4824C13.3043 45.1453 13.5151 45.7875 13.8194 46.3867C14.1223 46.9849 14.5202 47.5301 14.9976 48.001C15.4705 48.478 16.0171 48.876 16.6162 49.1797C17.2147 49.484 17.8555 49.6966 18.5171 49.8105C19.1797 49.9194 19.8496 49.9785 20.521 49.9873C20.8301 49.9941 21.1338 49.998 21.4399 49.998C21.8057 50 22.168 50 22.5347 50H133.171C133.531 50 133.896 50 134.255 49.998C134.56 49.998 134.873 49.9941 135.177 49.9873C135.847 49.9789 136.516 49.9198 137.177 49.8105C137.841 49.6958 138.484 49.4833 139.086 49.1797C139.684 48.8758 140.23 48.4778 140.703 48.001C141.179 47.5282 141.578 46.9835 141.884 46.3867C142.186 45.7871 142.395 45.1449 142.503 44.4824C142.615 43.8206 142.677 43.1515 142.689 42.4805C142.693 42.1699 142.693 41.8691 142.693 41.5586C142.701 41.1953 142.701 40.834 142.701 40.4648V19.5361C142.701 19.1699 142.701 18.8066 142.693 18.4443C142.693 18.1377 142.693 17.8301 142.689 17.5234C142.677 16.8524 142.615 16.1832 142.503 15.5214C142.395 14.8593 142.186 14.2175 141.884 13.6181C141.267 12.4152 140.288 11.436 139.086 10.8183C138.484 10.5156 137.841 10.3042 137.177 10.1913C136.516 10.0811 135.848 10.022 135.177 10.0146C134.873 10.0097 134.56 10.0038 134.255 10.0019C133.896 10 133.531 10 133.171 10Z" fill="#A6A6A6"/>
<path d="M21.4449 49.125C21.1402 49.125 20.8429 49.1211 20.5406 49.1143C19.9144 49.1061 19.2896 49.0516 18.6714 48.9512C18.095 48.8519 17.5366 48.6673 17.0147 48.4033C16.4975 48.1415 16.0258 47.7983 15.6177 47.3867C15.2036 46.98 14.8589 46.5082 14.5972 45.9902C14.3326 45.4688 14.1494 44.9099 14.0542 44.333C13.9513 43.7131 13.8957 43.0863 13.8877 42.458C13.8813 42.2471 13.873 41.5449 13.873 41.5449V18.4443C13.873 18.4443 13.8819 17.7529 13.8877 17.5498C13.8954 16.9225 13.9507 16.2967 14.0533 15.6777C14.1487 15.0993 14.332 14.5387 14.5967 14.0156C14.8575 13.4979 15.2003 13.0259 15.6119 12.6177C16.023 12.2056 16.4962 11.8606 17.0142 11.5952C17.535 11.3321 18.0923 11.1487 18.6675 11.0513C19.2877 10.9498 19.9146 10.895 20.543 10.8872L21.4454 10.875H134.251L135.164 10.8877C135.786 10.8951 136.408 10.9494 137.022 11.0503C137.603 11.149 138.166 11.3336 138.693 11.5981C139.731 12.133 140.575 12.9792 141.108 14.0181C141.368 14.5376 141.549 15.0935 141.643 15.667C141.747 16.291 141.805 16.9217 141.817 17.5542C141.82 17.8374 141.82 18.1416 141.82 18.4443C141.828 18.8193 141.828 19.1763 141.828 19.5361V40.4648C141.828 40.8281 141.828 41.1826 141.82 41.54C141.82 41.8652 141.82 42.1631 141.816 42.4697C141.804 43.0909 141.747 43.7104 141.645 44.3232C141.552 44.9043 141.37 45.4675 141.105 45.9932C140.841 46.5056 140.499 46.9733 140.089 47.3789C139.681 47.7927 139.208 48.1379 138.69 48.4014C138.165 48.6674 137.603 48.8527 137.022 48.9512C136.404 49.0522 135.779 49.1067 135.153 49.1143C134.86 49.1211 134.553 49.125 134.255 49.125L133.171 49.127L21.4449 49.125Z" fill="black"/>
<path d="M50.9272 35.2842H48.4136V38.7734C49.4526 38.7928 50.4911 38.7163 51.5161 38.5449L51.6084 39.2969C50.4281 39.481 49.2346 39.5675 48.04 39.5557H47.4951V34.5234H50.9272L50.9272 35.2842ZM53.0146 36.6856H54.1001V37.4512H53.0146V41.2959H52.0874V33.8203H53.0146V36.6856Z" fill="white"/>
<path d="M61.5547 37.5039V38.2422H58.6982V39.6523H57.7622V38.2422H54.7959V37.5039H61.5547ZM55.5825 35.5303C55.5825 34.6641 56.5889 34.0361 58.1797 34.0361C59.7705 34.0361 60.7857 34.6641 60.7857 35.5303C60.7857 36.4092 59.7705 37.0371 58.1885 37.0371C56.5889 37.0371 55.5825 36.4092 55.5825 35.5303V35.5303ZM56.5537 40.3594H60.7768V41.0938H55.6352V38.9668H56.5537V40.3594ZM56.5273 35.5391C56.5273 36.0176 57.2261 36.3262 58.1753 36.3262C59.1553 36.3262 59.832 36.0176 59.832 35.5391C59.832 35.0508 59.1597 34.7393 58.1797 34.7393C57.2261 34.7393 56.5273 35.0508 56.5273 35.5391V35.5391Z" fill="white"/>
<path d="M69.1543 39.6133V40.3515H62.3955V39.6133H65.3091V38.3955H63.2612V35.9433H67.3613V35.0332H63.248V34.291H68.2974V36.6904H64.1841V37.6572H68.4863V38.3955H66.232V39.6132L69.1543 39.6133Z" fill="white"/>
<path d="M76.7549 40.3027H69.9961V39.5644H76.7549L76.7549 40.3027ZM75.8848 35.2012H71.7847V37.2578H75.9419V38.0039H70.8706V34.4531H75.8848L75.8848 35.2012Z" fill="white"/>
<path d="M84.1758 36.3564H79.8164V35.623H84.1758L84.1758 36.3564ZM82.0352 39.877C81.7297 39.8388 81.4418 39.7132 81.2059 39.5154C80.9701 39.3176 80.7963 39.0559 80.7056 38.7617C80.6148 38.4676 80.6108 38.1535 80.6941 37.8571C80.7775 37.5608 80.9446 37.2948 81.1753 37.0911C81.4061 36.8874 81.6908 36.7546 81.9952 36.7087C82.2996 36.6628 82.6108 36.7057 82.8914 36.8323C83.172 36.9588 83.4101 37.1637 83.5771 37.4223C83.7441 37.6809 83.833 37.9822 83.833 38.29C83.8277 38.5151 83.7759 38.7367 83.6808 38.9408C83.5858 39.145 83.4496 39.3273 83.2808 39.4763C83.112 39.6253 82.9142 39.7378 82.6998 39.8068C82.4855 39.8757 82.2592 39.8996 82.0352 39.877ZM83.165 35.0557H80.8975V34.3047H83.165L83.165 35.0557ZM82.0352 39.1465C82.1524 39.1538 82.27 39.137 82.3805 39.0972C82.4911 39.0573 82.5923 38.9952 82.6779 38.9148C82.7636 38.8343 82.8318 38.7371 82.8785 38.6293C82.9251 38.5214 82.9492 38.4052 82.9492 38.2876C82.9492 38.1701 82.9251 38.0539 82.8785 37.946C82.8318 37.8381 82.7636 37.741 82.6779 37.6605C82.5923 37.58 82.4911 37.518 82.3805 37.4781C82.27 37.4382 82.1524 37.4214 82.0352 37.4288C81.9197 37.4244 81.8045 37.4434 81.6965 37.4846C81.5885 37.5258 81.4899 37.5884 81.4067 37.6686C81.3234 37.7488 81.2572 37.8449 81.212 37.9513C81.1667 38.0577 81.1434 38.1721 81.1434 38.2876C81.1434 38.4032 81.1667 38.5176 81.212 38.624C81.2572 38.7304 81.3234 38.8265 81.4067 38.9067C81.4899 38.9869 81.5885 39.0494 81.6965 39.0906C81.8045 39.1319 81.9197 39.1509 82.0352 39.1465ZM85.6914 36.9102H86.7637V37.67H85.6914V41.296H84.7695V33.8252H85.6914L85.6914 36.9102Z" fill="white"/>
<path d="M87.9961 39.9375L87.4736 39.2129C88.2519 38.8791 88.9309 38.3503 89.4451 37.6775C89.9593 37.0047 90.2914 36.2106 90.4092 35.3721H87.8906V34.6074H91.3936C91.3831 35.7249 91.0591 36.8169 90.4585 37.7592C89.8578 38.7016 89.0047 39.4563 87.9961 39.9375ZM93.6387 41.3008H92.7119V33.8203H93.6387V41.3008Z" fill="white"/>
<path d="M54.1602 26.5542H50.1152L49.1445 29.4224H47.4307L51.2627 18.8091H53.042L56.874 29.4224H55.1309L54.1602 26.5542ZM50.5342 25.23H53.7412L52.1592 20.5747H52.1152L50.5342 25.23Z" fill="white"/>
<path d="M65.1641 25.5542C65.1641 27.9585 63.8769 29.5034 61.9355 29.5034C61.4436 29.5294 60.9542 29.4161 60.5236 29.1768C60.093 28.9374 59.7386 28.5815 59.501 28.1499H59.4648V31.9819H57.876V21.6851H59.4131V22.9722H59.4424C59.6909 22.5426 60.0513 22.1885 60.4852 21.9476C60.9191 21.7066 61.4102 21.5879 61.9062 21.604C63.8701 21.604 65.1641 23.1558 65.1641 25.5542ZM63.5312 25.5542C63.5312 23.9868 62.7227 22.9575 61.4873 22.9575C60.2734 22.9575 59.457 24.0093 59.457 25.5542C59.457 27.1128 60.2734 28.1577 61.4873 28.1577C62.7227 28.1577 63.5312 27.1353 63.5312 25.5542Z" fill="white"/>
<path d="M73.6953 25.5542C73.6953 27.9585 72.4082 29.5034 70.4668 29.5034C69.9748 29.5294 69.4855 29.4162 69.0549 29.1768C68.6243 28.9374 68.2699 28.5815 68.0322 28.1499H67.9961V31.9819H66.4072V21.6851H67.9443V22.9722H67.9736C68.2222 22.5426 68.5826 22.1885 69.0165 21.9476C69.4504 21.7066 69.9415 21.5879 70.4375 21.604C72.4014 21.604 73.6953 23.1558 73.6953 25.5542ZM72.0625 25.5542C72.0625 23.9868 71.2539 22.9575 70.0185 22.9575C68.8047 22.9575 67.9883 24.0093 67.9883 25.5542C67.9883 27.1128 68.8047 28.1577 70.0185 28.1577C71.2539 28.1577 72.0625 27.1353 72.0625 25.5542Z" fill="white"/>
<path d="M79.354 26.4653C79.4722 27.5171 80.4937 28.2085 81.8911 28.2085C83.23 28.2085 84.1939 27.5171 84.1939 26.5688C84.1939 25.7446 83.6128 25.2524 82.2369 24.9136L80.8619 24.5825C78.9126 24.1118 78.0084 23.2007 78.0084 21.7222C78.0084 19.8911 79.6041 18.6333 81.8697 18.6333C84.1128 18.6333 85.65 19.8911 85.7017 21.7222H84.0982C84.0025 20.6626 83.1275 20.023 81.8472 20.023C80.5679 20.023 79.6929 20.6704 79.6929 21.6118C79.6929 22.3618 80.2515 22.8032 81.6197 23.1411L82.7886 23.4282C84.9654 23.9429 85.8706 24.8179 85.8706 26.3706C85.8706 28.356 84.2895 29.5991 81.7739 29.5991C79.4204 29.5991 77.832 28.3853 77.7295 26.4653L79.354 26.4653Z" fill="white"/>
<path d="M89.2989 19.854V21.6851H90.7695V22.9429H89.2988V27.2085C89.2988 27.8706 89.5928 28.1792 90.2402 28.1792C90.4146 28.1765 90.5887 28.1645 90.7617 28.1431V29.3931C90.471 29.4472 90.1755 29.4717 89.8799 29.4663C88.3125 29.4663 87.7021 28.8784 87.7021 27.3774V22.9429H86.5771V21.6851H87.7021V19.854H89.2989Z" fill="white"/>
<path d="M91.6406 25.5542C91.6406 23.1196 93.0742 21.5894 95.3106 21.5894C97.5537 21.5894 98.9805 23.1196 98.9805 25.5542C98.9805 27.9956 97.5615 29.5181 95.3106 29.5181C93.0596 29.5181 91.6406 27.9956 91.6406 25.5542ZM97.3623 25.5542C97.3623 23.8843 96.5977 22.8989 95.3106 22.8989C94.0234 22.8989 93.2588 23.8911 93.2588 25.5542C93.2588 27.231 94.0234 28.2085 95.3106 28.2085C96.5977 28.2085 97.3623 27.231 97.3623 25.5542Z" fill="white"/>
<path d="M100.291 21.685H101.806V23.0015H101.843C101.945 22.5902 102.186 22.2268 102.525 21.9723C102.864 21.7178 103.28 21.5877 103.703 21.604C103.886 21.6028 104.069 21.6228 104.248 21.6636V23.1489C104.017 23.0784 103.776 23.0461 103.534 23.0532C103.304 23.0438 103.074 23.0844 102.86 23.1723C102.647 23.2601 102.455 23.3932 102.298 23.5622C102.14 23.7313 102.022 23.9323 101.95 24.1516C101.878 24.3709 101.854 24.6032 101.88 24.8325V29.4223H100.291V21.685Z" fill="white"/>
<path d="M111.57 27.1499C111.396 27.8812 110.962 28.5243 110.349 28.9598C109.736 29.3953 108.986 29.5937 108.238 29.5181C105.988 29.5181 104.591 28.0103 104.591 25.5904C104.591 23.1636 105.995 21.5894 108.173 21.5894C110.312 21.5894 111.658 23.0601 111.658 25.4067V25.9507H106.194V26.0464C106.169 26.3311 106.205 26.618 106.299 26.8879C106.393 27.1578 106.543 27.4046 106.74 27.6119C106.937 27.8191 107.176 27.9822 107.44 28.0901C107.705 28.198 107.99 28.2484 108.275 28.2378C108.651 28.273 109.027 28.1862 109.349 27.9902C109.671 27.7942 109.921 27.4995 110.062 27.1499H111.57ZM106.201 24.8404H110.07C110.084 24.5844 110.046 24.3282 109.956 24.088C109.867 23.8477 109.728 23.6285 109.55 23.4442C109.372 23.2598 109.158 23.1142 108.921 23.0165C108.684 22.9188 108.429 22.8712 108.173 22.8765C107.914 22.8749 107.658 22.9245 107.418 23.0226C107.179 23.1206 106.961 23.2651 106.778 23.4477C106.595 23.6302 106.449 23.8473 106.35 24.0863C106.251 24.3254 106.201 24.5816 106.201 24.8404Z" fill="white"/>
<path d="M118.087 18.9878H119.325V28.9165H118.087V23.9048H117.18C117.066 25.6753 116.348 27.2144 114.896 27.2144C113.301 27.2144 112.594 25.3628 112.594 23.3862C112.594 21.4087 113.301 19.5952 114.896 19.5952C116.316 19.5952 117.035 21.0337 117.173 22.7476H118.087L118.087 18.9878ZM115.979 23.3862C115.979 21.9282 115.628 20.8149 114.896 20.8149C114.183 20.8149 113.857 21.9282 113.857 23.3862C113.857 24.8501 114.183 25.9507 114.896 25.9507C115.628 25.9507 115.978 24.8501 115.978 23.3862H115.979ZM121.489 18.7749V29.4165H120.251V18.7749H121.489Z" fill="white"/>
<path d="M127.088 21.271C127.044 22.2087 127.268 23.1395 127.733 23.9548C128.199 24.7701 128.886 25.4362 129.716 25.8755L128.946 26.8706C127.809 26.224 126.922 25.2153 126.425 24.0054C125.974 25.3223 125.069 26.4357 123.872 27.146L123.059 26.1821C123.906 25.6931 124.603 24.9804 125.074 24.1221C125.544 23.2637 125.769 22.2926 125.725 21.3149V19.6694H127.088L127.088 21.271ZM132.074 29.4165H130.748V23.5669H128.614V22.4478H130.748V18.7749H132.074V29.4165Z" fill="white"/>
<path d="M37.769 30.3007C37.7797 29.466 38.0014 28.6477 38.4135 27.9217C38.8255 27.1957 39.4145 26.5858 40.1256 26.1486C39.6738 25.5035 39.0779 24.9725 38.385 24.598C37.6922 24.2234 36.9216 24.0156 36.1344 23.991C34.4552 23.8147 32.8272 24.9958 31.9715 24.9958C31.0992 24.9958 29.7817 24.0085 28.363 24.0376C27.4453 24.0673 26.551 24.3341 25.7671 24.8122C24.9832 25.2903 24.3365 25.9632 23.8901 26.7655C21.9561 30.1139 23.3987 35.035 25.2513 37.7416C26.1782 39.0669 27.2615 40.5474 28.6789 40.4949C30.066 40.4374 30.584 39.6104 32.2583 39.6104C33.9171 39.6104 34.4031 40.4949 35.8493 40.4615C37.3377 40.4374 38.2754 39.1303 39.1698 37.7924C39.8358 36.848 40.3483 35.8043 40.6882 34.6999C39.8235 34.3341 39.0856 33.722 38.5665 32.9397C38.0474 32.1574 37.77 31.2396 37.769 30.3007Z" fill="white"/>
<path d="M35.0376 22.2109C35.8491 21.2367 36.2489 19.9845 36.1521 18.7203C34.9123 18.8505 33.767 19.4431 32.9445 20.3799C32.5424 20.8376 32.2344 21.37 32.0381 21.9468C31.8419 22.5235 31.7612 23.1333 31.8008 23.7413C32.4209 23.7477 33.0344 23.6132 33.5951 23.3482C34.1558 23.0831 34.649 22.6942 35.0376 22.2109Z" fill="white"/>
</g>
<defs>
<clipPath id="clip0">
<rect width="129.701" height="40" fill="white" transform="translate(13 10)"/>
</clipPath>
</defs>
</svg>
