<svg width="123" height="20" viewBox="0 0 123 20" fill="none" xmlns="http://www.w3.org/2000/svg">
<path d="M46.1273 15.7598C45.4829 16.1632 44.5215 16.3649 43.55 16.3649C40.8342 16.3649 39.2525 15.0296 39.2525 12.3025V8.7303H37.7109V5.94473H39.2525V3.18134H42.9639V5.94473H45.3846V8.7303H42.9639V12.2622C42.9639 13.0468 43.4135 13.4724 44.0779 13.4724C44.4797 13.4765 44.8737 13.3606 45.21 13.1396L46.1273 15.7598Z" fill="#6200EA"/>
<path d="M53.8551 5.37823V8.73464C53.5762 8.69812 53.2954 8.67859 53.0141 8.67615C51.5107 8.67615 50.475 9.44062 50.475 11.2983V16.1837H46.7656V5.54767H50.3004V6.82246C51.0571 5.8704 52.2875 5.37823 53.8551 5.37823Z" fill="#6200EA"/>
<path d="M64.3472 10.2855V16.1915H60.8908V14.8199C60.3629 15.8405 59.309 16.371 57.7655 16.371C55.2264 16.371 53.8213 14.9369 53.8213 13.0933C53.8213 11.1307 55.2464 9.91438 58.5262 9.91438H60.6358C60.5776 8.83525 59.855 8.22609 58.3897 8.22609C57.3607 8.22518 56.3572 8.54747 55.5194 9.1479L54.2709 6.61647C55.4752 5.80964 57.2817 5.38001 58.9377 5.38001C62.3741 5.37799 64.3472 6.90895 64.3472 10.2855ZM60.6358 12.7766V11.8548H59.0301C57.8398 11.8548 57.4102 12.2865 57.4102 12.9339C57.4102 13.5814 57.918 14.0131 58.7972 14.0131C59.6202 14.0131 60.3428 13.6218 60.6358 12.7766Z" fill="#6200EA"/>
<path d="M76.5367 5.55536L72.163 16.1914H68.3352L63.9795 5.55536H67.7932L70.3324 12.0503L73.008 5.55536H76.5367Z" fill="#6200EA"/>
<path d="M87.0667 11.8167H79.371C79.6841 12.8959 80.6015 13.5232 81.9684 13.5232C82.4156 13.5391 82.8616 13.4659 83.2805 13.3077C83.6995 13.1495 84.0831 12.9094 84.4092 12.6014L86.3622 14.6406C85.3465 15.7803 83.8632 16.3693 81.852 16.3693C78.0824 16.3693 75.6416 14.0335 75.6416 10.8546C75.6416 7.67568 78.1225 5.37823 81.4625 5.37823C84.5878 5.37823 87.127 7.38119 87.127 10.8929C87.1249 11.1672 87.0848 11.5222 87.0667 11.8167ZM79.3128 9.85412H83.6484C83.5778 9.33421 83.3162 8.85964 82.9151 8.52371C82.5139 8.18779 82.0022 8.0148 81.4806 8.03875C80.3285 8.02867 79.5276 8.73464 79.3128 9.85412Z" fill="#6200EA"/>
<path d="M88.0625 1.63019H91.7719V16.1914H88.0625V1.63019Z" fill="#6200EA"/>
<path d="M105.19 10.8748C105.19 14.2493 102.865 16.3693 99.995 16.3693C98.7645 16.3693 97.7689 15.9961 97.0463 15.2498V20H93.335V5.55574H96.8697V6.6147C97.5722 5.77156 98.608 5.37823 99.995 5.37823C102.865 5.37823 105.19 7.49818 105.19 10.8748ZM101.44 10.8748C101.44 9.2611 100.463 8.34131 99.2121 8.34131C97.9616 8.34131 96.9861 9.26513 96.9861 10.8748C96.9861 12.4844 97.9636 13.4082 99.2182 13.4082C100.473 13.4082 101.44 12.4824 101.44 10.8748Z" fill="#6200EA"/>
<path d="M105.68 2.39667C105.68 1.27719 106.579 0.413879 107.946 0.413879C109.313 0.413879 110.21 1.22071 110.21 2.33615C110.21 3.51412 109.313 4.37743 107.946 4.37743C106.579 4.37743 105.68 3.52421 105.68 2.39667ZM106.081 5.5554H109.79V16.1914H106.081V5.5554Z" fill="#6200EA"/>
<path d="M122.653 10.1083V16.1918H118.944V10.7174C118.944 9.18647 118.28 8.53899 117.206 8.53899C116.015 8.53899 115.096 9.28329 115.096 11.0502V16.1918H111.387V5.55574H114.921V6.71354C115.76 5.83006 116.953 5.37823 118.28 5.37823C120.76 5.37823 122.653 6.81237 122.653 10.1083Z" fill="#6200EA"/>
<path d="M16.7978 2.39479C16.1656 3.03173 15.6433 3.76998 15.2523 4.57928C14.8633 3.76977 14.3423 3.0314 13.7107 2.39479C5.9006 -4.85255 -4.83005 5.93274 2.38393 13.7771L7.72918 19.1506C7.81377 19.235 7.92815 19.2823 8.04734 19.2823C8.16653 19.2823 8.28088 19.235 8.36548 19.1506L13.7107 13.7771C14.3434 13.1418 14.8652 12.404 15.2543 11.5947C15.6448 12.4036 16.1672 13.1413 16.7999 13.7771L22.1451 19.1506C22.2294 19.2349 22.3434 19.2822 22.4622 19.2822C22.5811 19.2822 22.6951 19.2349 22.7794 19.1506L28.1266 13.7771C35.3386 5.9287 24.606 -4.85255 16.7978 2.39479ZM5.88454 10.2614C5.60069 9.97628 5.37551 9.63777 5.22188 9.2652C5.06825 8.89263 4.98918 8.49329 4.98918 8.08999C4.98918 7.6867 5.06825 7.28736 5.22188 6.91479C5.37551 6.54222 5.60069 6.20371 5.88454 5.91862C6.45778 5.34303 7.23498 5.01971 8.04533 5.01971C8.85568 5.01971 9.63288 5.34303 10.2061 5.91862C12.958 8.90993 8.86327 13.0248 5.88254 10.2573L5.88454 10.2614ZM20.3004 10.2614C20.0166 9.97628 19.7914 9.63777 19.6378 9.2652C19.4842 8.89263 19.4051 8.49329 19.4051 8.08999C19.4051 7.6867 19.4842 7.28736 19.6378 6.91479C19.7914 6.54222 20.0166 6.20371 20.3004 5.91862C20.8737 5.34303 21.6509 5.01971 22.4612 5.01971C23.2716 5.01971 24.0488 5.34303 24.622 5.91862C27.3739 8.90993 23.2792 13.0248 20.3004 10.2573V10.2614Z" fill="#6200EA"/>
</svg>
